{"title":"Australia's Next Top Model - S10E02","uid":15899988,"size":1453219973,"categoryP":"video","categoryS":"tv_shows","magnet":"?xt=urn:btih:91600f09b4e780f92e2fb229a7c8fb5cc3ef0e90&amp;dn=Australia%27s+Next+Top+Model+-+S10E02&amp;tr=udp%3A%2F%2Ftracker.leechers-paradise.org%3A6969&amp;tr=udp%3A%2F%2Fzer0day.ch%3A1337&amp;tr=udp%3A%2F%2Fopen.demonii.com%3A1337&amp;tr=udp%3A%2F%2Ftracker.coppersurfer.tk%3A6969&amp;tr=udp%3A%2F%2Fexodus.desync.com%3A6969","seeders":6,"leechers":2,"uploader":"Bullrout","files":1,"time":1474999044,"description":"Australia's Next Top Model - S10E02\r\n\r\nIt's high-pressure week and for the first time this year there's a massive prize up for grabs in the challenge. The models must work in teams to produce a social media video for Colgate Optic White.\r\n\r\nComplete name                            : Australia's Next Top Model - S10E02.mkv\r\nFormat                                   : Matroska\r\nFormat version                           : Version 4 / Version 2\r\nFile size                                : 1.35 GiB\r\nDuration                                 : 58 min 36 s\r\nOverall bit rate mode                    : Variable\r\nOverall bit rate                         : 3 306 kb/s\r\nEncoded date                             : UTC 2016-09-27 15:20:53\r\nWriting application                      : mkvmerge v9.4.2 ('So High') 64bit\r\nWriting library                          : libebml v1.3.4 + libmatroska v1.4.5\r\n\r\nVideo\r\nID                                       : 2\r\nFormat                                   : AVC\r\nFormat/Info                              : Advanced Video Codec\r\nFormat profile                           :   \r\nFormat settings, CABAC                   : Yes\r\nFormat settings, ReFrames                : 3 frames\r\nCodec ID                                 : V_MPEG4/ISO/AVC\r\nDuration                                 : 58 min 36 s\r\nBit rate mode                            : Variable\r\nBit rate                                 : 2 920 kb/s\r\nMaximum bit rate                         : 3 000 kb/s\r\nWidth                                    : 1 280 pixels\r\nHeight                                   : 720 pixels\r\nDisplay aspect ratio                     : 16:9\r\nFrame rate mode                          : Constant\r\nFrame rate                               : 25.000 FPS\r\nStandard                                 : PAL\r\nColor space                              : YUV\r\nChroma subsampling                       : 4:2:0\r\nBit depth                                : 8 bits\r\nScan type                                : Progressive\r\nBits/(Pixel*Frame)                       : 0.127\r\nStream size                              : 1.20 GiB (88%)\r\nWriting library                          : x264 core 112\r\nDefault                                  : Yes\r\nForced                                   : No\r\nColor range                              : Limited\r\nColor primaries                          : BT.709\r\nTransfer characteristics                 : BT.709\r\nMatrix coefficients                      : BT.709\r\n\r\nAudio\r\nID                                       : 1\r\nFormat                                   : AC-3\r\nFormat/Info                              : Audio Coding 3\r\nMode extension                           : CM (complete main)\r\nFormat settings, Endianness              : Big\r\nCodec ID                                 : A_AC3\r\nDuration                                 : 58 min 36 s\r\nBit rate mode                            : Constant\r\nBit rate                                 : 384 kb/s\r\nChannel(s)                               : 6 channels\r\nChannel positions                        : Front: L C R, Side: L R, LFE\r\nSampling rate                            : 48.0 kHz\r\nFrame rate                               : 31.250 FPS (1536 spf)\r\nCompression mode                         : Lossy\r\nStream size                              : 161 MiB (12%)\r\nDefault                                  : Yes\r\nForced                                   : No","torrent":{"xt":"urn:btih:91600f09b4e780f92e2fb229a7c8fb5cc3ef0e90","amp;dn":"Australia%27s+Next+Top+Model+-+S10E02","amp;tr":["udp%3A%2F%2Ftracker.leechers-paradise.org%3A6969","udp%3A%2F%2Fzer0day.ch%3A1337","udp%3A%2F%2Fopen.demonii.com%3A1337","udp%3A%2F%2Ftracker.coppersurfer.tk%3A6969","udp%3A%2F%2Fexodus.desync.com%3A6969"],"infoHash":"91600f09b4e780f92e2fb229a7c8fb5cc3ef0e90","infoHashBuffer":{"type":"Buffer","data":[145,96,15,9,180,231,128,249,46,47,178,41,167,200,251,92,195,239,14,144]},"announce":[],"urlList":[]}}